<svg xmlns="http://www.w3.org/2000/svg" width="24" height="24" viewBox="0 0 24 24">
    <path fill="#747E81" fill-rule="evenodd" d="M22.936 16.892c.042.093.064.194.064.296v.433c0 .4-.222.766-.57.939l-9.57 4.738c-.544.27-1.176.27-1.72 0L1.57 18.56c-.348-.173-.57-.538-.57-.94v-.432c0-.38.296-.688.661-.688.099 0 .196.023.285.067l9.194 4.552c.544.27 1.176.27 1.72 0l9.194-4.552c.33-.163.725-.018.882.325zm0-5c.042.093.064.194.064.296v.433c0 .4-.222.766-.57.939l-9.57 4.738c-.544.27-1.176.27-1.72 0L1.57 13.56c-.348-.173-.57-.538-.57-.94v-.432c0-.38.296-.688.661-.688.099 0 .196.023.285.067l9.194 4.552c.544.27 1.176.27 1.72 0l9.194-4.552c.33-.163.725-.018.882.325zM12.953.728L23.41 6.033c.526.267.74.916.476 1.45-.103.21-.27.38-.476.484l-10.458 5.305c-.6.304-1.306.304-1.906 0L.59 7.967C.063 7.7-.15 7.05.113 6.517c.103-.21.27-.38.476-.484L11.047.728c.6-.304 1.306-.304 1.906 0zM9.718 7.966L7.369 9.164l4.583 2.324c.02.01.043.014.064.01l.032-.01 2.296-1.165-4.626-2.357zm6.523-3.328L11.92 6.843l4.631 2.36 4.345-2.204-4.655-2.361zm-4.257-2.137l-.032.01L3.103 7l2.06 1.045 8.871-4.527-1.986-1.006c-.02-.01-.043-.014-.064-.01z"/>
</svg>
