<svg xmlns="http://www.w3.org/2000/svg" width="24" height="24" viewBox="0 0 24 24">
    <path fill="#747E81" fill-rule="evenodd" d="M12 1c6.075 0 11 4.925 11 11s-4.925 11-11 11S1 18.075 1 12 5.925 1 12 1zm0 16c-.767 0-1.515.018-2.247.053.183.597.394 1.162.63 1.682C11.068 20.242 11.807 21 12 21c.193 0 .932-.758 1.617-2.265.236-.52.447-1.085.63-1.68C13.514 17.017 12.766 17 12 17zm-4.286.202l-.464.048c-.793.088-1.562.2-2.308.334 1.05 1.327 2.466 2.35 4.095 2.917-.522-.924-.976-2.054-1.323-3.299zm8.572 0c-.348 1.248-.802 2.376-1.324 3.299 1.63-.568 3.045-1.59 4.096-2.916-.89-.162-1.815-.29-2.772-.384zM3.783 8.324l-.076.172C3.252 9.574 3 10.757 3 12c0 1.31.28 2.554.783 3.677 1.164-.193 2.328-.344 3.493-.454C7.098 14.18 7 13.09 7 12s.098-2.178.275-3.224c-1.164-.11-2.328-.26-3.492-.451zm16.434-.002l-.717.114c-.925.14-1.85.252-2.776.34C16.902 9.822 17 10.91 17 12c0 1.09-.098 2.179-.275 3.225 1.164.108 2.328.259 3.492.45C20.72 14.555 21 13.31 21 12c0-1.31-.28-2.554-.783-3.677zm-5.496.602l-.221.012C13.667 8.98 12.833 9 12 9c-.907 0-1.814-.025-2.721-.074C9.099 9.933 9 10.976 9 12c0 1.023.098 2.067.279 3.075.907-.05 1.814-.075 2.721-.075s1.814.025 2.721.074c.18-1.007.279-2.05.279-3.074 0-1.023-.098-2.067-.279-3.075zM12 3c-.193 0-.932.758-1.617 2.265-.236.52-.447 1.085-.63 1.68.732.037 1.48.055 2.247.055.767 0 1.515-.018 2.247-.053-.183-.597-.394-1.162-.63-1.682-.65-1.431-1.35-2.187-1.584-2.26L12 3zm-2.962.5l-.073.025c-1.599.572-2.988 1.584-4.023 2.89.89.162 1.815.29 2.772.384.347-1.246.801-2.376 1.324-3.3zm5.925 0l.102.185c.48.888.897 1.95 1.22 3.113.958-.094 1.882-.221 2.773-.382-1.05-1.327-2.466-2.35-4.095-2.917z"/>
</svg>
