<svg xmlns="http://www.w3.org/2000/svg" width="24" height="24" viewBox="0 0 24 24">
    <path fill="#747E81" fill-rule="evenodd" d="M17.51 1.767c.034.085.062.171.083.26l.938 3.804h1.803c.548 0 .993.452.993 1.008 0 .169-.042.335-.121.483l-1.05 1.95c-.469.873-1.23 1.524-2.121 1.855v.75c0 .244-.015.485-.043.722l4.376 3.167.119.117c.676.724.69 1.851.005 2.592-.075.081-.157.156-.245.223l-.137.095-1.689 1.076 1.288 1.903.058.112c.051.117.08.245.08.38 0 .53-.436.958-.972.958-.279 0-.53-.116-.708-.3l-.072-.084-1.306-1.93-1.23.783c-.154.103-.34.162-.54.162-.536 0-.97-.429-.97-.958 0-.287.127-.544.329-.721l.09-.07 4.59-2.922-3.637-2.632c-.403.829-.988 1.55-1.703 2.11l-2.735 6.241c-.222.509-.81.738-1.31.512-.225-.101-.405-.284-.505-.512L8.433 16.66c-.738-.579-1.337-1.33-1.742-2.192l-3.749 2.714 4.59 2.921c.253.175.42.464.42.792 0 .53-.435.958-.971.958-.2 0-.386-.06-.54-.162l-1.23-.782-1.306 1.93c-.179.232-.461.383-.78.383-.536 0-.971-.429-.971-.958 0-.135.028-.263.079-.38l.058-.112 1.288-1.903-1.69-1.076c-.14-.09-.268-.196-.38-.318-.686-.74-.672-1.868.004-2.592l.12-.117 4.515-3.27c-.02-.203-.03-.41-.03-.62l-.002-.749c-.89-.331-1.652-.982-2.12-1.854l-1.05-1.951c-.263-.489-.085-1.1.396-1.367.146-.08.31-.123.476-.123L5.62 5.83l.939-3.804C6.825.947 7.903.29 8.967.56c.087.022.173.05.256.084l2.484 1.008c.237.096.501.096.738 0L14.929.645c1.018-.414 2.174.089 2.582 1.122zm-4.518 16.154h-1.833l.917 2.09.916-2.09zm3.056-6.548H8.104v.503c0 2.158 1.672 3.92 3.774 4.025l.198.005c2.127 0 3.864-1.696 3.967-3.828l.005-.202v-.503zm2.612-3.526H5.49l.249.46c.321.598.916.987 1.577 1.044l.166.007h9.187c.671 0 1.293-.343 1.658-.905l.086-.145.247-.461zm-2.994-5.332l-2.484 1.008c-.639.26-1.345.286-1.997.078l-.216-.078-2.483-1.008-.818 3.317h8.815l-.817-3.317z"/>
</svg>
