<svg xmlns="http://www.w3.org/2000/svg" width="24" height="24" viewBox="0 0 24 24">
    <path fill="#747E81" fill-rule="evenodd" d="M14.5 1.288c4.884 1.14 8.366 5.434 8.496 10.423L23 12v1c0 2.21-1.79 4-4 4-1.345 0-2.535-.664-3.26-1.682C14.825 16.35 13.489 17 12 17c-2.761 0-5-2.239-5-5s2.239-5 5-5c1.032 0 1.991.313 2.788.849L15 8c0-.552.448-1 1-1 .513 0 .936.386.993.883L17 8v5c0 1.105.895 2 2 2 1.054 0 1.918-.816 1.995-1.85L21 13v-1c0-4.182-2.882-7.813-6.955-8.764-4.073-.95-8.264 1.03-10.115 4.78-1.852 3.75-.876 8.282 2.356 10.938 3.23 2.655 7.865 2.735 11.186.192.438-.336 1.066-.252 1.402.186.336.438.252 1.066-.186 1.402-4.058 3.108-9.723 3.01-13.672-.235-3.95-3.246-5.142-8.784-2.88-13.368C4.4 2.547 9.523.127 14.5 1.288zM12 9c-1.657 0-3 1.343-3 3s1.343 3 3 3 3-1.343 3-3-1.343-3-3-3z"/>
</svg>
