<svg xmlns="http://www.w3.org/2000/svg" width="24" height="24" viewBox="0 0 24 24">
    <path fill="#747E81" fill-rule="evenodd" d="M22 21c0 1.105-.895 2-2 2h-9c-.552 0-1-.448-1-1s.448-1 1-1l.086.004V21H20V9h-3c-1.105 0-2-.895-2-2l-.001-4H8v1c0 .552-.448 1-1 1s-1-.448-1-1V3c0-1.105.895-2 2-2h8.552c.6 0 1.168.27 1.548.734l3.448 4.213c.247.302.4.669.44 1.053H22v14zM7 7c.552 0 1 .448 1 1v1h2c.552 0 1 .448 1 1s-.448 1-1 1H8v1.999l.5.001c1.869 0 3.395 1.464 3.495 3.308L12 16.5c0 1.869-1.464 3.395-3.308 3.495L8.5 20l-.5-.001V22c0 .552-.448 1-1 1s-1-.448-1-1v-2.001L3 20c-.552 0-1-.448-1-1s.448-1 1-1l3-.001V15H5c-1.598 0-2.904-1.249-2.995-2.824L2 12c0-1.598 1.249-2.904 2.824-2.995L5 9h1V8c0-.552.448-1 1-1zm1.5 8H8v2.999l.5.001c.78 0 1.42-.595 1.493-1.356L10 16.5c0-.828-.672-1.5-1.5-1.5zM6 11H5c-.552 0-1 .448-1 1 0 .513.386.936.883.993L5 13l1-.001V11zm13.826-4l-2.827-3.454V7h2.827z"/>
</svg>
