<svg xmlns="http://www.w3.org/2000/svg" width="24" height="24" viewBox="0 0 24 24">
    <path fill="#747E81" fill-rule="evenodd" d="M12 1c6.075 0 11 4.925 11 11s-4.925 11-11 11c-.277 0-.552-.01-.824-.03l.795-1.97H12c4.97 0 9-4.03 9-9s-4.03-9-9-9c-4.882 0-8.856 3.887-8.996 8.735l-.004.27-1.97.807C1.01 12.544 1 12.273 1 12 1 5.925 5.925 1 12 1zm1.638 10.588l-.037.103-4.166 10c-.339.812-1.465.812-1.824.05l-.046-.113-.96-2.82-3.66 3.743c-.387.395-1.02.401-1.415.015-.364-.356-.398-.923-.097-1.319l.082-.095L5.2 17.385l-2.844-.966c-.791-.268-.899-1.296-.278-1.75l.105-.066.11-.054 10-4.166c.756-.315 1.513.354 1.37 1.102l-.025.103zM12 5c3.866 0 7 3.134 7 7 0 3.596-2.712 6.559-6.202 6.955l.91-2.254C15.628 16.003 17 14.16 17 12c0-2.761-2.239-5-5-5-2.141 0-3.968 1.346-4.68 3.238l-2.27.929C5.46 7.694 8.415 5 12 5zm-1.18 8.163l-5.313 2.214 1.847.628c.22.075.406.223.527.417l.055.1.043.108.627 1.846 2.214-5.313z"/>
</svg>
