<svg xmlns="http://www.w3.org/2000/svg" xmlns:xlink="http://www.w3.org/1999/xlink" width="24" height="24" viewBox="0 0 24 24">
    <path fill="#747E81" fill-rule="evenodd" id="prefix__a" d="M17.072 19v2c0 .6-.402 1-1.004 1-.603 0-1.004-.4-1.004-1v-2c0-1.7-1.305-3-3.012-3H6.02c-1.707 0-3.012 1.3-3.012 3v2c0 .6-.402 1-1.004 1S1 21.6 1 21v-2c0-2.8 2.209-5 5.02-5h6.032c2.811 0 5.02 2.2 5.02 5zM4.016 7c0-2.8 2.209-5 5.02-5 2.811 0 5.02 2.2 5.02 5s-2.209 5-5.02 5c-2.811 0-5.02-2.2-5.02-5zm2.008 0c0 1.7 1.305 3 3.012 3s3.012-1.3 3.012-3-1.305-3-3.012-3-3.012 1.3-3.012 3zm13.257 7.2c-.502-.1-1.105.2-1.205.7-.1.5.2 1.1.703 1.2 1.305.3 2.208 1.5 2.208 2.9v2c0 .6.402 1 1.004 1 .603 0 1.004-.4 1.004-1v-2c.1-2.3-1.405-4.3-3.714-4.8zm-3.016-12c-.502-.2-1.004.1-1.205.7-.1.5.2 1.1.703 1.2 1.606.4 2.61 2 2.208 3.7-.3 1.1-1.104 1.9-2.208 2.2-.502.1-.904.7-.703 1.2.1.5.502.8 1.004.8h.2c1.808-.5 3.213-1.8 3.615-3.6.703-2.8-.904-5.6-3.614-6.2z"/>
</svg>
