<svg xmlns="http://www.w3.org/2000/svg" xmlns:xlink="http://www.w3.org/1999/xlink" width="24" height="24" viewBox="0 0 24 24">
    <path fill="#747E81" fill-rule="evenodd" id="prefix__a2" d="M3 6V3c0-.6.4-1 1-1s1 .4 1 1v3c0 .6-.4 1-1 1s-1-.4-1-1zm17 5c-.6 0-1 .4-1 1v9c0 .6.4 1 1 1s1-.4 1-1v-9c0-.6-.4-1-1-1zm-8 2c.6 0 1-.4 1-1V3c0-.6-.4-1-1-1s-1 .4-1 1v9c0 .6.4 1 1 1zM6 9H2c-.6 0-1 .4-1 1s.4 1 1 1h1v10c0 .6.4 1 1 1s1-.4 1-1V11h1c.6 0 1-.4 1-1s-.4-1-1-1zm16-2h-1V3c0-.6-.4-1-1-1s-1 .4-1 1v4h-1c-.6 0-1 .4-1 1s.4 1 1 1h4c.6 0 1-.4 1-1s-.4-1-1-1zm-8 8h-4c-.6 0-1 .4-1 1s.4 1 1 1h1v4c0 .6.4 1 1 1s1-.4 1-1v-4h1c.6 0 1-.4 1-1s-.4-1-1-1z"/>
</svg>
