<svg xmlns="http://www.w3.org/2000/svg" width="24" height="24" viewBox="0 0 24 24">
    <path fill="#747E81" fill-rule="evenodd" d="M19.8 19.8c2-2 3.2-4.7 3.2-7.8 0-3-1.2-5.8-3.2-7.8S15 1 12 1 6.2 2.2 4.2 4.2 1 9 1 12s1.2 5.8 3.2 7.8S8.9 23 12 23c3 0 5.8-1.2 7.8-3.2zm-.8-2.2l-2.9-2.9c.6-.7.9-1.7.9-2.7 0-1-.3-2-.8-2.8L19 6.4c1.2 1.5 2 3.5 2 5.6 0 2.1-.7 4.1-2 5.6zM9 12c0-1.7 1.3-3 3-3s3 1.3 3 3-1.3 3-3 3-3-1.3-3-3zm8.6-7l-2.9 2.9C14 7.3 13 7 12 7c-1 0-2 .3-2.8.8L6.4 5C7.9 3.7 9.9 3 12 3c2.1 0 4.1.7 5.6 2zM5 6.4l2.9 2.9C7.3 10 7 11 7 12c0 1 .3 2 .8 2.8L5 17.6c-1.2-1.5-2-3.5-2-5.6 0-2.1.7-4.1 2-5.6zM6.4 19l2.9-2.9c.7.6 1.7.9 2.7.9 1 0 2-.3 2.8-.8l2.9 2.9c-1.5 1.2-3.5 2-5.6 2-2.2-.1-4.2-.8-5.7-2.1z"/>
</svg>
