<svg xmlns="http://www.w3.org/2000/svg" width="24" height="24" viewBox="0 0 24 24">
    <path fill="#747E81" fill-rule="evenodd" d="M19.778 1C21.558 1 23 2.443 23 4.222v11.111c0 1.78-1.443 3.223-3.222 3.223l-12.92-.001-4.15 4.152c-.603.603-1.615.22-1.702-.593L1 22V4.222C1 2.442 2.443 1 4.222 1zm0 2H4.222C3.547 3 3 3.547 3 4.222v15.362l2.737-2.736c.157-.156.36-.255.576-.284l.131-.008h13.334c.675 0 1.222-.548 1.222-1.223V4.223C21 3.546 20.453 3 19.778 3zM12 8.5c.552 0 1 .448 1 1v4c0 .552-.448 1-1 1s-1-.448-1-1v-4c0-.552.448-1 1-1zM12 5c.552 0 1 .448 1 1s-.448 1-1 1-1-.448-1-1 .448-1 1-1z"/>
</svg>
